<svg xmlns="http://www.w3.org/2000/svg" viewBox="0 0 1440 320"><path fill="#3b5464" fill-opacity="1" d="M0,192L6.2,181.3C12.3,171,25,149,37,144C49.2,139,62,149,74,149.3C86.2,149,98,139,111,149.3C123.1,160,135,192,148,176C160,160,172,96,185,80C196.9,64,209,96,222,112C233.8,128,246,128,258,122.7C270.8,117,283,107,295,90.7C307.7,75,320,53,332,48C344.6,43,357,53,369,58.7C381.5,64,394,64,406,64C418.5,64,431,64,443,69.3C455.4,75,468,85,480,80C492.3,75,505,53,517,58.7C529.2,64,542,96,554,138.7C566.2,181,578,235,591,234.7C603.1,235,615,181,628,144C640,107,652,85,665,74.7C676.9,64,689,64,702,90.7C713.8,117,726,171,738,181.3C750.8,192,763,160,775,144C787.7,128,800,128,812,106.7C824.6,85,837,43,849,48C861.5,53,874,107,886,133.3C898.5,160,911,160,923,138.7C935.4,117,948,75,960,101.3C972.3,128,985,224,997,261.3C1009.2,299,1022,277,1034,266.7C1046.2,256,1058,256,1071,245.3C1083.1,235,1095,213,1108,197.3C1120,181,1132,171,1145,160C1156.9,149,1169,139,1182,112C1193.8,85,1206,43,1218,58.7C1230.8,75,1243,149,1255,154.7C1267.7,160,1280,96,1292,101.3C1304.6,107,1317,181,1329,197.3C1341.5,213,1354,171,1366,170.7C1378.5,171,1391,213,1403,213.3C1415.4,213,1428,171,1434,149.3L1440,128L1440,0L1433.8,0C1427.7,0,1415,0,1403,0C1390.8,0,1378,0,1366,0C1353.8,0,1342,0,1329,0C1316.9,0,1305,0,1292,0C1280,0,1268,0,1255,0C1243.1,0,1231,0,1218,0C1206.2,0,1194,0,1182,0C1169.2,0,1157,0,1145,0C1132.3,0,1120,0,1108,0C1095.4,0,1083,0,1071,0C1058.5,0,1046,0,1034,0C1021.5,0,1009,0,997,0C984.6,0,972,0,960,0C947.7,0,935,0,923,0C910.8,0,898,0,886,0C873.8,0,862,0,849,0C836.9,0,825,0,812,0C800,0,788,0,775,0C763.1,0,751,0,738,0C726.2,0,714,0,702,0C689.2,0,677,0,665,0C652.3,0,640,0,628,0C615.4,0,603,0,591,0C578.5,0,566,0,554,0C541.5,0,529,0,517,0C504.6,0,492,0,480,0C467.7,0,455,0,443,0C430.8,0,418,0,406,0C393.8,0,382,0,369,0C356.9,0,345,0,332,0C320,0,308,0,295,0C283.1,0,271,0,258,0C246.2,0,234,0,222,0C209.2,0,197,0,185,0C172.3,0,160,0,148,0C135.4,0,123,0,111,0C98.5,0,86,0,74,0C61.5,0,49,0,37,0C24.6,0,12,0,6,0L0,0Z"></path></svg>